<mxfile host="app.diagrams.net" modified="2022-07-05T09:25:15.133Z" agent="5.0 (Macintosh; Intel Mac OS X 10_15_7) AppleWebKit/537.36 (KHTML, like Gecko) Chrome/103.0.0.0 Safari/537.36" etag="SsVe2hsflSC6F-s9tIiI" version="20.0.1" type="github" pages="3">
  <diagram id="kgpKYQtTHZ0yAKxKKP6v" name="单条记录">
    <mxGraphModel dx="951" dy="1555" grid="1" gridSize="10" guides="1" tooltips="1" connect="1" arrows="1" fold="1" page="1" pageScale="1" pageWidth="850" pageHeight="1100" math="0" shadow="0">
      <root>
        <mxCell id="0" />
        <mxCell id="1" parent="0" />
        <mxCell id="3nuBFxr9cyL0pnOWT2aG-1" value="前端" style="shape=umlLifeline;perimeter=lifelinePerimeter;container=1;collapsible=0;recursiveResize=0;rounded=0;shadow=0;strokeWidth=1;" parent="1" vertex="1">
          <mxGeometry x="120" y="80" width="100" height="300" as="geometry" />
        </mxCell>
        <mxCell id="3nuBFxr9cyL0pnOWT2aG-2" value="" style="points=[];perimeter=orthogonalPerimeter;rounded=0;shadow=0;strokeWidth=1;" parent="3nuBFxr9cyL0pnOWT2aG-1" vertex="1">
          <mxGeometry x="45" y="70" width="10" height="190" as="geometry" />
        </mxCell>
        <mxCell id="3nuBFxr9cyL0pnOWT2aG-3" value="前端请求" style="verticalAlign=bottom;startArrow=oval;endArrow=block;startSize=8;shadow=0;strokeWidth=1;" parent="3nuBFxr9cyL0pnOWT2aG-1" target="3nuBFxr9cyL0pnOWT2aG-2" edge="1">
          <mxGeometry relative="1" as="geometry">
            <mxPoint x="-15" y="70" as="sourcePoint" />
          </mxGeometry>
        </mxCell>
        <mxCell id="3nuBFxr9cyL0pnOWT2aG-5" value="Controller" style="shape=umlLifeline;perimeter=lifelinePerimeter;container=1;collapsible=0;recursiveResize=0;rounded=0;shadow=0;strokeWidth=1;" parent="1" vertex="1">
          <mxGeometry x="300" y="80" width="100" height="300" as="geometry" />
        </mxCell>
        <mxCell id="3nuBFxr9cyL0pnOWT2aG-6" value="" style="points=[];perimeter=orthogonalPerimeter;rounded=0;shadow=0;strokeWidth=1;" parent="3nuBFxr9cyL0pnOWT2aG-5" vertex="1">
          <mxGeometry x="45" y="80" width="10" height="160" as="geometry" />
        </mxCell>
        <mxCell id="3nuBFxr9cyL0pnOWT2aG-8" value="拦截器拦截请求并注入&#xa;用户配置courtCodes" style="verticalAlign=bottom;endArrow=block;entryX=0;entryY=0;shadow=0;strokeWidth=1;fontSize=11;" parent="1" source="3nuBFxr9cyL0pnOWT2aG-2" target="3nuBFxr9cyL0pnOWT2aG-6" edge="1">
          <mxGeometry relative="1" as="geometry">
            <mxPoint x="275" y="160" as="sourcePoint" />
          </mxGeometry>
        </mxCell>
        <mxCell id="SE7JAbUPpJ-5eUO7LKqL-11" value="Service" style="shape=umlLifeline;perimeter=lifelinePerimeter;container=1;collapsible=0;recursiveResize=0;rounded=0;shadow=0;strokeWidth=1;" parent="1" vertex="1">
          <mxGeometry x="500" y="80" width="100" height="300" as="geometry" />
        </mxCell>
        <mxCell id="SE7JAbUPpJ-5eUO7LKqL-12" value="" style="points=[];perimeter=orthogonalPerimeter;rounded=0;shadow=0;strokeWidth=1;" parent="SE7JAbUPpJ-5eUO7LKqL-11" vertex="1">
          <mxGeometry x="45" y="80" width="10" height="160" as="geometry" />
        </mxCell>
        <mxCell id="SE7JAbUPpJ-5eUO7LKqL-13" value="Dao（Mapper）" style="shape=umlLifeline;perimeter=lifelinePerimeter;container=1;collapsible=0;recursiveResize=0;rounded=0;shadow=0;strokeWidth=1;" parent="1" vertex="1">
          <mxGeometry x="700" y="70" width="100" height="300" as="geometry" />
        </mxCell>
        <mxCell id="SE7JAbUPpJ-5eUO7LKqL-14" value="" style="points=[];perimeter=orthogonalPerimeter;rounded=0;shadow=0;strokeWidth=1;" parent="SE7JAbUPpJ-5eUO7LKqL-13" vertex="1">
          <mxGeometry x="45" y="80" width="10" height="160" as="geometry" />
        </mxCell>
        <mxCell id="SE7JAbUPpJ-5eUO7LKqL-18" style="edgeStyle=orthogonalEdgeStyle;rounded=0;orthogonalLoop=1;jettySize=auto;html=1;fontSize=11;exitX=0.978;exitY=0.207;exitDx=0;exitDy=0;exitPerimeter=0;" parent="1" source="3nuBFxr9cyL0pnOWT2aG-6" target="SE7JAbUPpJ-5eUO7LKqL-11" edge="1">
          <mxGeometry relative="1" as="geometry">
            <mxPoint x="430" y="240" as="targetPoint" />
            <Array as="points">
              <mxPoint x="355" y="180" />
            </Array>
          </mxGeometry>
        </mxCell>
        <mxCell id="8l81Vc26us2J2Qerfzua-2" value="根据cid、sn查询" style="edgeLabel;html=1;align=center;verticalAlign=middle;resizable=0;points=[];fontSize=11;" vertex="1" connectable="0" parent="SE7JAbUPpJ-5eUO7LKqL-18">
          <mxGeometry x="0.0826" y="2" relative="1" as="geometry">
            <mxPoint as="offset" />
          </mxGeometry>
        </mxCell>
        <mxCell id="8l81Vc26us2J2Qerfzua-1" style="edgeStyle=orthogonalEdgeStyle;rounded=0;orthogonalLoop=1;jettySize=auto;html=1;entryX=0.009;entryY=0.227;entryDx=0;entryDy=0;entryPerimeter=0;fontSize=11;" edge="1" parent="1" source="SE7JAbUPpJ-5eUO7LKqL-12" target="SE7JAbUPpJ-5eUO7LKqL-14">
          <mxGeometry relative="1" as="geometry">
            <Array as="points">
              <mxPoint x="720" y="186" />
              <mxPoint x="720" y="186" />
            </Array>
          </mxGeometry>
        </mxCell>
        <mxCell id="8l81Vc26us2J2Qerfzua-6" value="&lt;font color=&quot;#ff0000&quot;&gt;若单表查询需要join case表过滤&lt;br&gt;mybatis-plus插件&lt;br&gt;拼接上court_code in (xxx)&lt;br&gt;&lt;/font&gt;" style="edgeLabel;html=1;align=center;verticalAlign=middle;resizable=0;points=[];fontSize=11;" vertex="1" connectable="0" parent="8l81Vc26us2J2Qerfzua-1">
          <mxGeometry x="-0.3477" y="-2" relative="1" as="geometry">
            <mxPoint x="33" y="-28" as="offset" />
          </mxGeometry>
        </mxCell>
        <mxCell id="8l81Vc26us2J2Qerfzua-8" style="edgeStyle=orthogonalEdgeStyle;rounded=0;orthogonalLoop=1;jettySize=auto;html=1;fontSize=11;fontColor=#FF0000;exitX=0.497;exitY=0.921;exitDx=0;exitDy=0;exitPerimeter=0;" edge="1" parent="1" source="8l81Vc26us2J2Qerfzua-9">
          <mxGeometry relative="1" as="geometry">
            <mxPoint x="650" y="130" as="targetPoint" />
            <mxPoint x="650" y="20" as="sourcePoint" />
          </mxGeometry>
        </mxCell>
        <mxCell id="8l81Vc26us2J2Qerfzua-9" value="单表查询大多数用的mybatis-plus查询需要改成left join" style="shape=callout;whiteSpace=wrap;html=1;perimeter=calloutPerimeter;fontSize=11;fontColor=#FF0000;" vertex="1" parent="1">
          <mxGeometry x="590" y="-60" width="120" height="80" as="geometry" />
        </mxCell>
        <mxCell id="8l81Vc26us2J2Qerfzua-10" style="edgeStyle=orthogonalEdgeStyle;rounded=0;orthogonalLoop=1;jettySize=auto;html=1;fontSize=11;fontColor=#FF0000;" edge="1" parent="1" source="SE7JAbUPpJ-5eUO7LKqL-14" target="SE7JAbUPpJ-5eUO7LKqL-11">
          <mxGeometry relative="1" as="geometry" />
        </mxCell>
        <mxCell id="8l81Vc26us2J2Qerfzua-12" value="过滤单条数据" style="edgeLabel;html=1;align=center;verticalAlign=middle;resizable=0;points=[];fontSize=11;fontColor=#FF0000;" vertex="1" connectable="0" parent="8l81Vc26us2J2Qerfzua-10">
          <mxGeometry x="0.0999" y="-2" relative="1" as="geometry">
            <mxPoint as="offset" />
          </mxGeometry>
        </mxCell>
        <mxCell id="8l81Vc26us2J2Qerfzua-15" style="edgeStyle=orthogonalEdgeStyle;rounded=0;orthogonalLoop=1;jettySize=auto;html=1;entryX=1;entryY=0.498;entryDx=0;entryDy=0;entryPerimeter=0;fontSize=11;fontColor=#FF0000;" edge="1" parent="1" source="SE7JAbUPpJ-5eUO7LKqL-12" target="3nuBFxr9cyL0pnOWT2aG-6">
          <mxGeometry relative="1" as="geometry" />
        </mxCell>
        <mxCell id="8l81Vc26us2J2Qerfzua-18" value="返回数据" style="edgeLabel;html=1;align=center;verticalAlign=middle;resizable=0;points=[];fontSize=11;fontColor=#000000;" vertex="1" connectable="0" parent="8l81Vc26us2J2Qerfzua-15">
          <mxGeometry x="0.2362" y="-2" relative="1" as="geometry">
            <mxPoint as="offset" />
          </mxGeometry>
        </mxCell>
        <mxCell id="8l81Vc26us2J2Qerfzua-16" value="&lt;font color=&quot;#000000&quot;&gt;返回数据&lt;/font&gt;" style="edgeStyle=orthogonalEdgeStyle;rounded=0;orthogonalLoop=1;jettySize=auto;html=1;fontSize=11;fontColor=#FF0000;" edge="1" parent="1" source="3nuBFxr9cyL0pnOWT2aG-6" target="3nuBFxr9cyL0pnOWT2aG-1">
          <mxGeometry relative="1" as="geometry">
            <Array as="points">
              <mxPoint x="300" y="230" />
              <mxPoint x="300" y="230" />
            </Array>
          </mxGeometry>
        </mxCell>
      </root>
    </mxGraphModel>
  </diagram>
  <diagram id="lqFhKrCSAi3UoFyXcT7N" name="列表查询">
    <mxGraphModel dx="1426" dy="1851" grid="1" gridSize="10" guides="1" tooltips="1" connect="1" arrows="1" fold="1" page="1" pageScale="1" pageWidth="827" pageHeight="1169" math="0" shadow="0">
      <root>
        <mxCell id="0" />
        <mxCell id="1" parent="0" />
        <mxCell id="pGW9Ufu_6rYB34V19ef3-1" value="前端" style="shape=umlLifeline;perimeter=lifelinePerimeter;container=1;collapsible=0;recursiveResize=0;rounded=0;shadow=0;strokeWidth=1;" vertex="1" parent="1">
          <mxGeometry x="120" y="80" width="100" height="300" as="geometry" />
        </mxCell>
        <mxCell id="pGW9Ufu_6rYB34V19ef3-2" value="" style="points=[];perimeter=orthogonalPerimeter;rounded=0;shadow=0;strokeWidth=1;" vertex="1" parent="pGW9Ufu_6rYB34V19ef3-1">
          <mxGeometry x="45" y="70" width="10" height="190" as="geometry" />
        </mxCell>
        <mxCell id="pGW9Ufu_6rYB34V19ef3-3" value="前端请求" style="verticalAlign=bottom;startArrow=oval;endArrow=block;startSize=8;shadow=0;strokeWidth=1;" edge="1" parent="pGW9Ufu_6rYB34V19ef3-1" target="pGW9Ufu_6rYB34V19ef3-2">
          <mxGeometry relative="1" as="geometry">
            <mxPoint x="-15" y="70" as="sourcePoint" />
          </mxGeometry>
        </mxCell>
        <mxCell id="pGW9Ufu_6rYB34V19ef3-4" value="Controller" style="shape=umlLifeline;perimeter=lifelinePerimeter;container=1;collapsible=0;recursiveResize=0;rounded=0;shadow=0;strokeWidth=1;" vertex="1" parent="1">
          <mxGeometry x="300" y="80" width="100" height="300" as="geometry" />
        </mxCell>
        <mxCell id="pGW9Ufu_6rYB34V19ef3-5" value="" style="points=[];perimeter=orthogonalPerimeter;rounded=0;shadow=0;strokeWidth=1;" vertex="1" parent="pGW9Ufu_6rYB34V19ef3-4">
          <mxGeometry x="45" y="80" width="10" height="160" as="geometry" />
        </mxCell>
        <mxCell id="pGW9Ufu_6rYB34V19ef3-6" value="拦截器拦截请求并注入&#xa;用户配置courtCodes" style="verticalAlign=bottom;endArrow=block;entryX=0;entryY=0;shadow=0;strokeWidth=1;fontSize=11;" edge="1" parent="1" source="pGW9Ufu_6rYB34V19ef3-2" target="pGW9Ufu_6rYB34V19ef3-5">
          <mxGeometry relative="1" as="geometry">
            <mxPoint x="275" y="160" as="sourcePoint" />
          </mxGeometry>
        </mxCell>
        <mxCell id="pGW9Ufu_6rYB34V19ef3-7" value="Service" style="shape=umlLifeline;perimeter=lifelinePerimeter;container=1;collapsible=0;recursiveResize=0;rounded=0;shadow=0;strokeWidth=1;" vertex="1" parent="1">
          <mxGeometry x="500" y="80" width="100" height="300" as="geometry" />
        </mxCell>
        <mxCell id="pGW9Ufu_6rYB34V19ef3-8" value="" style="points=[];perimeter=orthogonalPerimeter;rounded=0;shadow=0;strokeWidth=1;" vertex="1" parent="pGW9Ufu_6rYB34V19ef3-7">
          <mxGeometry x="45" y="80" width="10" height="160" as="geometry" />
        </mxCell>
        <mxCell id="pGW9Ufu_6rYB34V19ef3-9" value="Dao（Mapper）" style="shape=umlLifeline;perimeter=lifelinePerimeter;container=1;collapsible=0;recursiveResize=0;rounded=0;shadow=0;strokeWidth=1;" vertex="1" parent="1">
          <mxGeometry x="700" y="70" width="100" height="300" as="geometry" />
        </mxCell>
        <mxCell id="pGW9Ufu_6rYB34V19ef3-10" value="" style="points=[];perimeter=orthogonalPerimeter;rounded=0;shadow=0;strokeWidth=1;" vertex="1" parent="pGW9Ufu_6rYB34V19ef3-9">
          <mxGeometry x="45" y="80" width="10" height="160" as="geometry" />
        </mxCell>
        <mxCell id="pGW9Ufu_6rYB34V19ef3-11" style="edgeStyle=orthogonalEdgeStyle;rounded=0;orthogonalLoop=1;jettySize=auto;html=1;fontSize=11;exitX=0.978;exitY=0.207;exitDx=0;exitDy=0;exitPerimeter=0;" edge="1" parent="1" source="pGW9Ufu_6rYB34V19ef3-5" target="pGW9Ufu_6rYB34V19ef3-7">
          <mxGeometry relative="1" as="geometry">
            <mxPoint x="430" y="240" as="targetPoint" />
            <Array as="points">
              <mxPoint x="355" y="180" />
            </Array>
          </mxGeometry>
        </mxCell>
        <mxCell id="pGW9Ufu_6rYB34V19ef3-12" value="根据查询条件查询" style="edgeLabel;html=1;align=center;verticalAlign=middle;resizable=0;points=[];fontSize=11;" vertex="1" connectable="0" parent="pGW9Ufu_6rYB34V19ef3-11">
          <mxGeometry x="0.0826" y="2" relative="1" as="geometry">
            <mxPoint as="offset" />
          </mxGeometry>
        </mxCell>
        <mxCell id="pGW9Ufu_6rYB34V19ef3-13" style="edgeStyle=orthogonalEdgeStyle;rounded=0;orthogonalLoop=1;jettySize=auto;html=1;entryX=0.009;entryY=0.227;entryDx=0;entryDy=0;entryPerimeter=0;fontSize=11;" edge="1" parent="1" source="pGW9Ufu_6rYB34V19ef3-8" target="pGW9Ufu_6rYB34V19ef3-10">
          <mxGeometry relative="1" as="geometry">
            <Array as="points">
              <mxPoint x="720" y="186" />
              <mxPoint x="720" y="186" />
            </Array>
          </mxGeometry>
        </mxCell>
        <mxCell id="pGW9Ufu_6rYB34V19ef3-14" value="&lt;font color=&quot;#ff0000&quot;&gt;&lt;br&gt;利用mybatis-plus插件&lt;br&gt;拼接上court_code in (xxx)&lt;br&gt;&lt;/font&gt;" style="edgeLabel;html=1;align=center;verticalAlign=middle;resizable=0;points=[];fontSize=11;" vertex="1" connectable="0" parent="pGW9Ufu_6rYB34V19ef3-13">
          <mxGeometry x="-0.3477" y="-2" relative="1" as="geometry">
            <mxPoint x="33" y="-28" as="offset" />
          </mxGeometry>
        </mxCell>
        <mxCell id="pGW9Ufu_6rYB34V19ef3-17" style="edgeStyle=orthogonalEdgeStyle;rounded=0;orthogonalLoop=1;jettySize=auto;html=1;fontSize=11;fontColor=#FF0000;" edge="1" parent="1" source="pGW9Ufu_6rYB34V19ef3-10" target="pGW9Ufu_6rYB34V19ef3-7">
          <mxGeometry relative="1" as="geometry" />
        </mxCell>
        <mxCell id="pGW9Ufu_6rYB34V19ef3-18" value="只查出对应法院权限信息" style="edgeLabel;html=1;align=center;verticalAlign=middle;resizable=0;points=[];fontSize=11;fontColor=#FF0000;" vertex="1" connectable="0" parent="pGW9Ufu_6rYB34V19ef3-17">
          <mxGeometry x="0.0999" y="-2" relative="1" as="geometry">
            <mxPoint as="offset" />
          </mxGeometry>
        </mxCell>
        <mxCell id="pGW9Ufu_6rYB34V19ef3-19" style="edgeStyle=orthogonalEdgeStyle;rounded=0;orthogonalLoop=1;jettySize=auto;html=1;entryX=1;entryY=0.498;entryDx=0;entryDy=0;entryPerimeter=0;fontSize=11;fontColor=#FF0000;" edge="1" parent="1" source="pGW9Ufu_6rYB34V19ef3-8" target="pGW9Ufu_6rYB34V19ef3-5">
          <mxGeometry relative="1" as="geometry" />
        </mxCell>
        <mxCell id="pGW9Ufu_6rYB34V19ef3-20" value="返回数据" style="edgeLabel;html=1;align=center;verticalAlign=middle;resizable=0;points=[];fontSize=11;fontColor=#000000;" vertex="1" connectable="0" parent="pGW9Ufu_6rYB34V19ef3-19">
          <mxGeometry x="0.2362" y="-2" relative="1" as="geometry">
            <mxPoint as="offset" />
          </mxGeometry>
        </mxCell>
        <mxCell id="pGW9Ufu_6rYB34V19ef3-21" value="&lt;font color=&quot;#000000&quot;&gt;返回数据&lt;/font&gt;" style="edgeStyle=orthogonalEdgeStyle;rounded=0;orthogonalLoop=1;jettySize=auto;html=1;fontSize=11;fontColor=#FF0000;" edge="1" parent="1" source="pGW9Ufu_6rYB34V19ef3-5" target="pGW9Ufu_6rYB34V19ef3-1">
          <mxGeometry relative="1" as="geometry">
            <Array as="points">
              <mxPoint x="300" y="230" />
              <mxPoint x="300" y="230" />
            </Array>
          </mxGeometry>
        </mxCell>
        <mxCell id="0x1Edo98HbkPm0VQyTSj-1" value="单条操作是在页面上进行的，后端理论上不会触发" style="shape=callout;whiteSpace=wrap;html=1;perimeter=calloutPerimeter;fontSize=11;fontColor=#000000;" vertex="1" parent="1">
          <mxGeometry x="400" y="-70" width="120" height="80" as="geometry" />
        </mxCell>
      </root>
    </mxGraphModel>
  </diagram>
  <diagram id="o_dDMDS5-6yDOPdR2BQt" name="批量操作">
    <mxGraphModel dx="1426" dy="682" grid="1" gridSize="10" guides="1" tooltips="1" connect="1" arrows="1" fold="1" page="1" pageScale="1" pageWidth="827" pageHeight="1169" math="0" shadow="0">
      <root>
        <mxCell id="0" />
        <mxCell id="1" parent="0" />
        <mxCell id="OZaMGHCpha3dbO1mzQ3Z-1" value="前端" style="shape=umlLifeline;perimeter=lifelinePerimeter;container=1;collapsible=0;recursiveResize=0;rounded=0;shadow=0;strokeWidth=1;" vertex="1" parent="1">
          <mxGeometry x="120" y="80" width="100" height="300" as="geometry" />
        </mxCell>
        <mxCell id="OZaMGHCpha3dbO1mzQ3Z-2" value="" style="points=[];perimeter=orthogonalPerimeter;rounded=0;shadow=0;strokeWidth=1;" vertex="1" parent="OZaMGHCpha3dbO1mzQ3Z-1">
          <mxGeometry x="45" y="70" width="10" height="190" as="geometry" />
        </mxCell>
        <mxCell id="OZaMGHCpha3dbO1mzQ3Z-3" value="前端请求" style="verticalAlign=bottom;startArrow=oval;endArrow=block;startSize=8;shadow=0;strokeWidth=1;" edge="1" parent="OZaMGHCpha3dbO1mzQ3Z-1" target="OZaMGHCpha3dbO1mzQ3Z-2">
          <mxGeometry relative="1" as="geometry">
            <mxPoint x="-15" y="70" as="sourcePoint" />
          </mxGeometry>
        </mxCell>
        <mxCell id="OZaMGHCpha3dbO1mzQ3Z-4" value="Controller" style="shape=umlLifeline;perimeter=lifelinePerimeter;container=1;collapsible=0;recursiveResize=0;rounded=0;shadow=0;strokeWidth=1;" vertex="1" parent="1">
          <mxGeometry x="300" y="80" width="100" height="300" as="geometry" />
        </mxCell>
        <mxCell id="OZaMGHCpha3dbO1mzQ3Z-5" value="" style="points=[];perimeter=orthogonalPerimeter;rounded=0;shadow=0;strokeWidth=1;" vertex="1" parent="OZaMGHCpha3dbO1mzQ3Z-4">
          <mxGeometry x="45" y="80" width="10" height="160" as="geometry" />
        </mxCell>
        <mxCell id="OZaMGHCpha3dbO1mzQ3Z-6" value="拦截器拦截请求并注入&#xa;用户配置courtCodes" style="verticalAlign=bottom;endArrow=block;entryX=0;entryY=0;shadow=0;strokeWidth=1;fontSize=11;" edge="1" parent="1" source="OZaMGHCpha3dbO1mzQ3Z-2" target="OZaMGHCpha3dbO1mzQ3Z-5">
          <mxGeometry relative="1" as="geometry">
            <mxPoint x="275" y="160" as="sourcePoint" />
          </mxGeometry>
        </mxCell>
        <mxCell id="OZaMGHCpha3dbO1mzQ3Z-7" value="Service" style="shape=umlLifeline;perimeter=lifelinePerimeter;container=1;collapsible=0;recursiveResize=0;rounded=0;shadow=0;strokeWidth=1;" vertex="1" parent="1">
          <mxGeometry x="500" y="80" width="100" height="300" as="geometry" />
        </mxCell>
        <mxCell id="OZaMGHCpha3dbO1mzQ3Z-8" value="" style="points=[];perimeter=orthogonalPerimeter;rounded=0;shadow=0;strokeWidth=1;" vertex="1" parent="OZaMGHCpha3dbO1mzQ3Z-7">
          <mxGeometry x="45" y="80" width="10" height="160" as="geometry" />
        </mxCell>
        <mxCell id="OZaMGHCpha3dbO1mzQ3Z-9" value="Dao（Mapper）" style="shape=umlLifeline;perimeter=lifelinePerimeter;container=1;collapsible=0;recursiveResize=0;rounded=0;shadow=0;strokeWidth=1;" vertex="1" parent="1">
          <mxGeometry x="700" y="70" width="100" height="300" as="geometry" />
        </mxCell>
        <mxCell id="OZaMGHCpha3dbO1mzQ3Z-10" value="" style="points=[];perimeter=orthogonalPerimeter;rounded=0;shadow=0;strokeWidth=1;" vertex="1" parent="OZaMGHCpha3dbO1mzQ3Z-9">
          <mxGeometry x="45" y="80" width="10" height="160" as="geometry" />
        </mxCell>
        <mxCell id="OZaMGHCpha3dbO1mzQ3Z-11" style="edgeStyle=orthogonalEdgeStyle;rounded=0;orthogonalLoop=1;jettySize=auto;html=1;fontSize=11;exitX=0.978;exitY=0.207;exitDx=0;exitDy=0;exitPerimeter=0;" edge="1" parent="1" source="OZaMGHCpha3dbO1mzQ3Z-5" target="OZaMGHCpha3dbO1mzQ3Z-7">
          <mxGeometry relative="1" as="geometry">
            <mxPoint x="430" y="240" as="targetPoint" />
            <Array as="points">
              <mxPoint x="355" y="180" />
            </Array>
          </mxGeometry>
        </mxCell>
        <mxCell id="OZaMGHCpha3dbO1mzQ3Z-12" value="根据cid、sn查询" style="edgeLabel;html=1;align=center;verticalAlign=middle;resizable=0;points=[];fontSize=11;" vertex="1" connectable="0" parent="OZaMGHCpha3dbO1mzQ3Z-11">
          <mxGeometry x="0.0826" y="2" relative="1" as="geometry">
            <mxPoint as="offset" />
          </mxGeometry>
        </mxCell>
        <mxCell id="OZaMGHCpha3dbO1mzQ3Z-13" style="edgeStyle=orthogonalEdgeStyle;rounded=0;orthogonalLoop=1;jettySize=auto;html=1;entryX=0.009;entryY=0.227;entryDx=0;entryDy=0;entryPerimeter=0;fontSize=11;" edge="1" parent="1" source="OZaMGHCpha3dbO1mzQ3Z-8" target="OZaMGHCpha3dbO1mzQ3Z-10">
          <mxGeometry relative="1" as="geometry">
            <Array as="points">
              <mxPoint x="720" y="186" />
              <mxPoint x="720" y="186" />
            </Array>
          </mxGeometry>
        </mxCell>
        <mxCell id="OZaMGHCpha3dbO1mzQ3Z-14" value="&lt;font color=&quot;#ff0000&quot;&gt;&lt;br&gt;利用mybatis-plus插件&lt;br&gt;拼接上court_code in (xxx)&lt;br&gt;&lt;/font&gt;" style="edgeLabel;html=1;align=center;verticalAlign=middle;resizable=0;points=[];fontSize=11;" vertex="1" connectable="0" parent="OZaMGHCpha3dbO1mzQ3Z-13">
          <mxGeometry x="-0.3477" y="-2" relative="1" as="geometry">
            <mxPoint x="33" y="-28" as="offset" />
          </mxGeometry>
        </mxCell>
        <mxCell id="OZaMGHCpha3dbO1mzQ3Z-15" style="edgeStyle=orthogonalEdgeStyle;rounded=0;orthogonalLoop=1;jettySize=auto;html=1;fontSize=11;fontColor=#FF0000;" edge="1" parent="1" source="OZaMGHCpha3dbO1mzQ3Z-10" target="OZaMGHCpha3dbO1mzQ3Z-7">
          <mxGeometry relative="1" as="geometry" />
        </mxCell>
        <mxCell id="OZaMGHCpha3dbO1mzQ3Z-16" value="数据权限控制" style="edgeLabel;html=1;align=center;verticalAlign=middle;resizable=0;points=[];fontSize=11;fontColor=#FF0000;" vertex="1" connectable="0" parent="OZaMGHCpha3dbO1mzQ3Z-15">
          <mxGeometry x="0.0999" y="-2" relative="1" as="geometry">
            <mxPoint as="offset" />
          </mxGeometry>
        </mxCell>
        <mxCell id="OZaMGHCpha3dbO1mzQ3Z-17" style="edgeStyle=orthogonalEdgeStyle;rounded=0;orthogonalLoop=1;jettySize=auto;html=1;entryX=1;entryY=0.498;entryDx=0;entryDy=0;entryPerimeter=0;fontSize=11;fontColor=#FF0000;" edge="1" parent="1" source="OZaMGHCpha3dbO1mzQ3Z-8" target="OZaMGHCpha3dbO1mzQ3Z-5">
          <mxGeometry relative="1" as="geometry" />
        </mxCell>
        <mxCell id="OZaMGHCpha3dbO1mzQ3Z-18" value="返回数据" style="edgeLabel;html=1;align=center;verticalAlign=middle;resizable=0;points=[];fontSize=11;fontColor=#000000;" vertex="1" connectable="0" parent="OZaMGHCpha3dbO1mzQ3Z-17">
          <mxGeometry x="0.2362" y="-2" relative="1" as="geometry">
            <mxPoint as="offset" />
          </mxGeometry>
        </mxCell>
        <mxCell id="OZaMGHCpha3dbO1mzQ3Z-19" value="&lt;font color=&quot;#000000&quot;&gt;返回数据&lt;/font&gt;" style="edgeStyle=orthogonalEdgeStyle;rounded=0;orthogonalLoop=1;jettySize=auto;html=1;fontSize=11;fontColor=#FF0000;" edge="1" parent="1" source="OZaMGHCpha3dbO1mzQ3Z-5" target="OZaMGHCpha3dbO1mzQ3Z-1">
          <mxGeometry relative="1" as="geometry">
            <Array as="points">
              <mxPoint x="300" y="230" />
              <mxPoint x="300" y="230" />
            </Array>
          </mxGeometry>
        </mxCell>
      </root>
    </mxGraphModel>
  </diagram>
</mxfile>
